<svg xmlns="http://www.w3.org/2000/svg" style="color: rgb(99, 102, 241);" width="66" height="66" viewBox="0 0 24 24" class="duoicon duoicon-sun"><path fill="currentColor" d="M12 18.5a1.5 1.5 0 0 1 1.493 1.356L13.5 20v1a1.5 1.5 0 0 1-2.993.144L10.5 21v-1a1.5 1.5 0 0 1 1.5-1.5Zm0-17a1.5 1.5 0 0 1 1.493 1.356L13.5 3v1a1.5 1.5 0 0 1-2.993.144L10.5 4V3A1.5 1.5 0 0 1 12 1.5Zm5.303 3.075a1.5 1.5 0 0 1 2.225 2.008l-.103.114-.707.707a1.5 1.5 0 0 1-2.225-2.008l.103-.114.707-.707Zm-12.728 0a1.5 1.5 0 0 1 2.008-.103l.114.103.707.707a1.5 1.5 0 0 1-2.008 2.225l-.114-.103-.707-.707a1.5 1.5 0 0 1 0-2.122ZM21 10.5a1.5 1.5 0 0 1 .144 2.993L21 13.5h-1a1.5 1.5 0 0 1-.144-2.993L20 10.5h1Zm-17 0a1.5 1.5 0 0 1 .144 2.993L4 13.5H3a1.5 1.5 0 0 1-.144-2.993L3 10.5h1Z" class="duoicon-primary-layer"></path><path fill="currentColor" d="M12 6c4.619 0 7.506 5 5.196 9A6 6 0 0 1 12 18c-4.619 0-7.506-5-5.196-9A6 6 0 0 1 12 6Z" class="duoicon-secondary-layer" opacity=".3"></path><path fill="currentColor" d="M5.282 16.596a1.5 1.5 0 0 1 2.225 2.008l-.103.114-.707.707a1.5 1.5 0 0 1-2.225-2.008l.103-.114.707-.707Zm11.314 0a1.5 1.5 0 0 1 2.008-.103l.114.103.707.707a1.5 1.5 0 0 1-2.008 2.225l-.114-.103-.707-.707a1.5 1.5 0 0 1 0-2.122Z" class="duoicon-primary-layer"></path></svg>
